<?xml version="1.0" encoding="UTF-8" standalone="no"?>
<!-- Created with Inkscape (http://www.inkscape.org/) -->

<svg
   width="185.20833mm"
   height="271.70697mm"
   viewBox="0 0 185.20833 271.70697"
   version="1.1"
   id="svg1"
   xml:space="preserve"
   xmlns="http://www.w3.org/2000/svg"
   xmlns:svg="http://www.w3.org/2000/svg"><defs
     id="defs1"><clipPath
       clipPathUnits="userSpaceOnUse"
       id="clipPath54-5"><path
         d="m 98.369,28.8 h 55.262 v 52 H 98.369 Z"
         transform="matrix(2.6057613,0,0,-2.6060058,-347.57302,158.11717)"
         id="path54-1" /></clipPath><clipPath
       clipPathUnits="userSpaceOnUse"
       id="clipPath54-5-9"><path
         d="m 98.369,28.8 h 55.262 v 52 H 98.369 Z"
         transform="matrix(2.6057613,0,0,-2.6060058,-347.57302,158.11717)"
         id="path54-1-6" /></clipPath></defs><g
     id="layer14"
     transform="translate(-126.20629,-44.714582)"><g
       id="g1096-4"
       transform="matrix(0.99998282,0,0,0.99998282,118.9933,30.969023)"
       style="display:inline;stroke-width:1.00002"><g
         id="g1095-2"
         transform="translate(-25.646142,46.454731)"
         style="stroke-width:1.00002"><path
           id="path53-2-7"
           clip-path="url(#clipPath54-5-9)"
           style="display:inline;fill:#252021;fill-opacity:1;fill-rule:nonzero;stroke:none;stroke-width:1.00002"
           transform="matrix(0.08284499,0,0,0.08283722,91.798834,2.0354965)"
           d="M 0,0 C 0.007,-0.119 0.013,-0.239 0.02,-0.358 0.427,-0.484 0.835,-0.61 1.301,-0.754 1.358,-1.641 1.079,-2.096 0.265,-2.763 c -2.271,-1.86 -4.82,-1.376 -7.162,-1.009 -2.161,0.339 -3.798,2.04 -4.881,4.068 -0.718,1.345 -1.509,2.638 -1.327,4.28 0.145,1.311 0.88,2.206 2.108,2.519 0.619,0.157 1.24,0.427 1.77,0.781 1.185,0.789 2.421,1.267 3.875,1.237 0.645,-0.014 1.295,0.252 1.946,0.371 0.167,0.03 0.351,0.007 0.52,-0.027 C -2.309,9.34 -1.737,9.11 -1.159,9.096 1.366,9.037 3.374,7.867 5.147,6.213 5.892,5.519 5.337,3.158 4.418,2.193 3.209,0.922 1.831,0.064 0,0 m -18.536793,-40.802995 c 0.031,-0.002 0.062,-0.003 0.094,-0.005 -0.259,0.002 -0.5,0.009 -0.745,0.037 0.098,-0.004 0.202,-0.009 0.312,-0.014 -0.06,0.005 -0.12,0.007 -0.181,0.014 0.217,-0.009 0.463,-0.021 0.745,-0.037 -0.077,0 -0.15,0.003 -0.225,0.005 M 16.563808,3.0962085 c 0.133,0.561 0.219,1.136 0.285,1.717 -0.066,-0.581 -0.152,-1.156 -0.285,-1.717 m -2.371294,5.4748012 c -0.02,-0.155 -0.038,-0.311 -0.062,-0.465 0.024,0.154 0.042,0.31 0.062,0.465 M 9.7638072,1.8935043 c -0.005,-1.41300004 -0.046,-2.82600004 -0.128,-4.235 0.082,1.40899996 0.123,2.82199996 0.128,4.235 M -48.185387,-1.2432993 c -0.005,0.115 -0.003,0.231 -0.008,0.347 0.019,-0.482 0.035,-0.964 0.064,-1.445 -0.022,0.366 -0.04,0.732 -0.056,1.098 m -7.157798,6.0562076 c 0.066,-0.581 0.152,-1.155 0.285,-1.717 -0.133,0.562 -0.219,1.136 -0.285,1.717 m 3.037894,1.7555944 c -0.134,0.498 -0.233,1.006 -0.315,1.518 0.082,-0.512 0.181,-1.02 0.315,-1.518 m 69.283904,5.0778023 c -0.002,0.006 -0.004,0.012 -0.006,0.019 -0.339,1.084 -0.685,2.166 -1.048,3.243 -0.16,0.475 -0.322,0.949 -0.49,1.421 -0.215,0.498 -1.204,2.793 -1.908,3.983 -0.093,0.17 -0.182,0.342 -0.279,0.511 -0.484,0.517 -0.498,0.091 -0.436,-0.416 0.016,-0.198 0.05,-0.448 0.103,-0.758 0.068,-0.285 0.156,-0.569 0.25,-0.852 0.093,-0.283 0.193,-0.565 0.285,-0.847 0.184,-0.564 0.338,-1.128 0.354,-1.698 -0.019,-1.685 0.319,-3.34 0.52,-5.008 0.015,-0.406 0.016,-0.807 0.002,-1.205 -0.017,-0.497 -0.071,-0.984 -0.133,-1.468 -0.02,-0.155 -0.038,-0.311 -0.062,-0.465 -0.083,-0.519 -0.184,-1.033 -0.32,-1.538 -0.037,-0.438 0.023,-0.931 0.006,-1.386 -0.007,-0.174 -0.023,-0.343 -0.062,-0.501 -0.465,-0.697 -0.461,-1.448 -0.426,-2.201 0.016,-0.342 0.038,-0.685 0.026,-1.023 0,-0.012 0.003,-0.026 0.004,-0.039 0.022,-0.316 0.305,-0.696 0.666,-0.967 0.412,-0.31 0.92,-0.473 1.251,-0.225 0.012,0.009 0.025,0.015 0.037,0.025 0.158,0.218 0.298,0.442 0.426,0.67 0.389,0.691 0.647,1.421 0.825,2.175 0.133,0.561 0.22,1.136 0.285,1.717 0.082,0.718 0.131,1.446 0.183,2.171 0.018,0.575 0.036,1.157 0.043,1.741 0.012,0.98 -0.006,1.964 -0.096,2.921 m -7.2309999,-7.76 c -0.01,0.555 -0.024,1.109 -0.043,1.663 -0.022,0.654 -0.05,1.307 -0.083,1.959 -0.047,0.933 -0.104,1.863 -0.168,2.789 0.268,2.899 -1.559,5.568 -2.497,8.188 -0.769,2.147 -2.081,4.062 -2.82,6.277 -0.602,1.804 -1.893,3.372 -2.823,5.075 -0.871,1.595 -1.712,3.211 -2.481,4.858 -0.354,0.756 -0.439,1.635 -0.758,2.412 -0.574,1.396 -1.307,2.73 -1.837,4.141 -0.671,2.399 -1.615,4.923 -2.881,7.24 -0.016,0.03 -0.033,0.06 -0.049,0.09 -0.067,0.123 -0.136,0.246 -0.205,0.368 -1.733,3.081 -4.0510001,5.751 -7.1630001,7.157 -0.008,0.004 -0.016,0.007 -0.024,0.011 -0.147,0.068 -0.297,0.13 -0.447,0.192 -1.322,0.55 -2.772,0.874 -4.36,0.914 -0.218,0.108 -0.317,0.287 -0.356,0.522 -0.038,-0.235 -0.137,-0.414 -0.355,-0.522 -1.588,-0.04 -3.039,-0.364 -4.36,-0.914 -0.15,-0.062 -0.301,-0.124 -0.448,-0.192 -0.007,-0.004 -0.015,-0.007 -0.023,-0.011 -3.112,-1.406 -5.431,-4.076 -7.164,-7.157 -0.069,-0.122 -0.137,-0.245 -0.204,-0.368 -0.017,-0.03 -0.033,-0.06 -0.05,-0.09 -1.265,-2.317 -2.209,-4.841 -2.88,-7.24 -0.53,-1.411 -1.263,-2.745 -1.837,-4.141 -0.319,-0.777 -0.405,-1.656 -0.758,-2.412 -0.769,-1.647 -1.61,-3.263 -2.482,-4.858 -0.93,-1.703 -2.221,-3.271 -2.823,-5.075 -0.739,-2.215 -2.05,-4.13 -2.819,-6.277 -0.938,-2.62 -2.765,-5.289 -2.497,-8.188 -0.065,-0.926 -0.122,-1.856 -0.169,-2.789 -0.033,-0.652 -0.06,-1.305 -0.082,-1.959 -0.019,-0.554 -0.034,-1.108 -0.044,-1.663 -0.012,-0.664 -0.018,-1.328 -0.016,-1.993 0.004,-0.93 0.029,-1.86 0.065,-2.79 0.005,-0.115 0.003,-0.231 0.008,-0.347 0.016,-0.366 0.034,-0.732 0.056,-1.097 0.018,-0.317 0.039,-0.633 0.062,-0.948 0.033,-0.455 0.069,-0.909 0.112,-1.363 0.069,-1.705 0.078,-3.415 0.05,-5.121 -0.037,-2.274 1.202,-3.952 1.964,-6.074 0.411,-1.145 0.779,-2.842 1.097,-4.025 0.133,-0.494 0.446,-0.936 0.615,-1.424 1.022,-2.957 2.364,-5.764 3.891,-8.491 2.157,-6.068 11.543,-9.051 21.091,-8.91 9.5490001,-0.141 18.9350001,2.842 21.0920001,8.91 1.526,2.727 2.868,5.534 3.891,8.491 0.169,0.488 0.482,0.93 0.615,1.424 0.318,1.183 0.685,2.88 1.097,4.025 0.761,2.122 2,3.8 1.963,6.074 -0.027,1.706 -0.018,3.416 0.05,5.121 0.043,0.454 0.079,0.908 0.113,1.363 0.023,0.315 0.043,0.631 0.062,0.948 0.083,1.408 0.123,2.821 0.128,4.234 0.002,0.665 -0.003,1.329 -0.016,1.993 m -61.4900001,16.937 c -0.096,-0.169 -0.185,-0.341 -0.279,-0.511 -0.703,-1.189 -1.692,-3.485 -1.907,-3.983 -0.168,-0.472 -0.331,-0.946 -0.491,-1.421 -0.363,-1.077 -0.708,-2.159 -1.048,-3.243 -0.002,-0.007 -0.003,-0.013 -0.005,-0.019 -0.085,-0.892 -0.105,-1.807 -0.098,-2.72 0.006,-0.651 0.024,-1.301 0.045,-1.942 0.052,-0.725 0.101,-1.453 0.182,-2.171 0.066,-0.581 0.153,-1.156 0.285,-1.717 0.179,-0.754 0.437,-1.484 0.826,-2.175 0.128,-0.228 0.267,-0.452 0.426,-0.67 0.011,-0.01 0.025,-0.016 0.037,-0.025 0.33,-0.248 0.838,-0.085 1.25,0.225 0.362,0.271 0.645,0.651 0.666,0.967 10e-4,0.013 0.005,0.027 0.005,0.039 -0.013,0.338 0.01,0.681 0.026,1.023 0.017,0.377 0.027,0.753 -0.026,1.122 -0.052,0.369 -0.168,0.731 -0.4,1.079 -0.048,0.194 -0.063,0.405 -0.065,0.622 -0.004,0.421 0.043,0.866 0.008,1.265 -0.134,0.498 -0.232,1.006 -0.315,1.519 -0.042,0.256 -0.086,0.512 -0.115,0.772 -0.042,0.389 -0.071,0.783 -0.085,1.18 -0.013,0.398 -0.013,0.799 0.003,1.205 0.2,1.668 0.538,3.323 0.52,5.008 0.016,0.57 0.17,1.134 0.354,1.698 0.092,0.282 0.191,0.564 0.285,0.847 0.093,0.283 0.181,0.567 0.25,0.852 v 0.001 c 0.053,0.309 0.086,0.559 0.103,0.757 0.061,0.507 0.048,0.933 -0.437,0.416 m 65.072,-23.918 c -0.506,-6.95 -2.297,-13.562 -4.8629999,-19.987 -2.468,-12.851 -16.102,-16.543 -27.5710001,-17.682 0.016,-0.002 0.032,-0.006 0.048,-0.007 -0.066,0.003 -0.127,0.003 -0.191,0.001 -0.063,0.002 -0.124,0.002 -0.19,-0.001 0.015,0.001 0.032,0.005 0.047,0.007 -11.469,1.139 -25.103,4.831 -27.57,17.682 -2.567,6.425 -4.357,13.037 -4.864,19.987 -2.257,1.574 -5.577,4.089 -5.553,7.099 -0.012,3.724 0.529,7.45 0.822,11.144 0.193,1.332 0.595,2.582 1.189,3.79 0.23,0.756 0.563,1.486 0.981,2.157 0.557,1.707 1.573,3.198 2.24,4.86 0.632,0.866 1.056,1.827 1.626,2.735 0.548,0.448 0.668,1.15 0.626,1.836 1.407,3.736 2.755,7.464 4.448,11.085 0.355,0.775 0.867,1.459 1.436,2.106 1.089,1.237 2.145,2.502 3.118,3.832 0.756,1.032 1.589,2.004 2.611,2.797 2.87,2.286 6.154,4.068 9.2,6.072 2.869,1.984 6.412,2.489 9.833,2.724 -0.003,-0.104 -0.002,-0.205 0,-0.304 -0.002,0.099 -0.003,0.2 0,0.304 3.422,-0.235 6.965,-0.74 9.8330001,-2.724 3.046,-2.004 6.331,-3.786 9.201,-6.072 1.021,-0.793 1.855,-1.765 2.611,-2.797 0.973,-1.33 2.029,-2.595 3.118,-3.832 0.569,-0.647 1.081,-1.331 1.436,-2.106 1.692,-3.621 3.041,-7.349 4.4469999,-11.085 -0.042,-0.686 0.079,-1.388 0.627,-1.836 0.57,-0.908 0.994,-1.869 1.625,-2.735 0.667,-1.662 1.683,-3.153 2.241,-4.86 0.417,-0.671 0.75,-1.401 0.98,-2.157 0.595,-1.208 0.997,-2.458 1.19,-3.79 0.293,-3.694 0.834,-7.42 0.822,-11.144 0.024,-3.01 -3.296,-5.525 -5.554,-7.099 m -32.636311,-37.6765 c -0.245,-0.028 -0.486,-0.035 -0.745,-0.037 0.033,0.002 0.063,0.003 0.094,0.005 -0.074,-0.002 -0.148,-0.004 -0.225,-0.005 0.282,0.016 0.528,0.028 0.745,0.037 -0.06,-0.007 -0.12,-0.009 -0.181,-0.014 0.11,0.006 0.215,0.01 0.312,0.014 m -12.290686,36.9991971 c -2.342,-0.367 -4.891,-0.852 -7.162,1.009 -0.814,0.667 -1.093,1.122 -1.036,2.00899998 0.466,0.144 0.874,0.27 1.281,0.396 0.007,0.119 0.013,0.239 0.02,0.3579999981072 -1.831,0.064000001893 -3.209,0.9220000018928 -4.418,2.1930000218928 -0.919,0.965 -1.474,3.326 -0.729,4.02 1.773,1.654 3.781,2.824 6.307,2.883 0.577,0.014 1.149,0.244 1.726,0.361 0.169,0.034 0.353,0.057 0.52,0.027 0.651,-0.119 1.301,-0.385 1.946,-0.371 1.455,0.03 2.69,-0.448 3.875,-1.237 0.53,-0.354 1.152,-0.624 1.77,-0.781 1.229,-0.313 1.964,-1.208 2.109,-2.52 0.181,-1.641 -0.609,-2.934 -1.328,-4.27900002 -1.083,-2.02799998 -2.72,-3.72899998 -4.881,-4.06799998 M -2.6281904,68.406714 c -0.048,-0.022 -0.082,-0.031 -0.106,-0.031 -0.025,0.001 -0.041,0.009 -0.055,0.022 -0.027,0.027 -0.046,0.07 -0.105,0.093 -0.224,0.09 -0.332,0.182 -0.604,0.215 -0.319,0.038 -0.655,0.096 -0.966,0.097 -0.507,0.001 -1.016,0.137 -1.528,0.071 -0.071,-0.009 -0.143,-0.021 -0.214,-0.03 -0.072,-0.008 -0.143,-0.013 -0.214,-0.007 -0.094,0.008 -0.102,0.083 -0.203,0.094 -0.256,0.027 -0.462,-0.05 -0.724,0.004 -0.245,0.051 -0.451,0.079 -0.698,0.072 -0.156,-0.004 -0.297,0.028 -0.438,0.063 -0.141,0.036 -0.281,0.074 -0.435,0.081 -0.131,0.005 -0.262,0.019 -0.393,0.028 -0.131,0.01 -0.262,0.016 -0.393,0.006 -0.243,-0.018 -0.3279996,0.022 -0.5389996,0.063 -0.246,0.047 -0.563,0.097 -0.823,0.118 -0.287,0.023 -0.584,-0.097 -0.864,-0.044 -0.129,0.024 -0.239,0.125 -0.366,0.151 -0.184,0.039 -0.371,-0.027 -0.559,-0.011 -0.09,0.007 -0.178,0.059 -0.284,0.065 -0.103,0.005 -0.238,-0.037 -0.336,-0.043 -0.267,-0.017 -0.476,0.073 -0.748,0.04 -0.236,-0.029 -0.473,-0.053 -0.709,-0.078 -0.241,-0.025 -0.41,-0.04 -0.604,-0.15 -0.208,-0.117 -0.364,-0.301 -0.519,-0.475 -0.196,-0.219 -0.206,-0.299 -0.177,-0.593 0.025,-0.248 -0.012,-0.577 0.182,-0.73 0.109,-0.086 0.352,-0.059 0.487,-0.107 0.098,-0.035 0.188,-0.093 0.277,-0.138 0.245,-0.125 0.482,-0.102 0.743,-0.181 0.207,-0.062 0.361,-0.178 0.576,-0.236 0.413,-0.109 0.825,-0.227 1.236,-0.339 0.536,-0.147 1.017,-0.429 1.534,-0.587 0.488,-0.15 1.001,-0.27 1.4979996,-0.401 0.613,-0.161 1.21,-0.25 1.835,-0.336 0.356,-0.049 0.687,-0.145 1.043,-0.184 0.327,-0.037 0.583,-0.212 0.893,-0.267 0.131,-0.023 0.238,0.037 0.362,0.023 0.147,-0.017 0.193,-0.087 0.359,-0.09 0.116,-0.001 0.242,0.06 0.356,0.048 0.132,-0.012 0.238,-0.082 0.369,-0.091 0.199,-0.013 0.755,0.018 0.925,0.099 0.176,0.084 0.323,0.348 0.475,0.509 0.264,0.282 0.281,0.492 0.231,0.864 -0.04,0.298 0.076,0.454 0.039,0.748 -0.044,0.34 0.049,0.631 0.014,0.965 -0.023,0.223 -0.115,0.398 -0.01,0.514 0.035,0.038 0.092,0.071 0.18,0.096 m -2.101,6.369 c -0.122,0.196 -0.263,0.355 -0.423,0.492 -0.16,0.138 -0.339,0.253 -0.539,0.361 -0.278,0.149 -0.466,0.154 -0.717,0.13 -0.083,-0.008 -0.174,-0.019 -0.277,-0.03 -0.407,-0.041 -0.72,-0.191 -1.062,-0.415 -0.111,-0.072 -0.205,-0.116 -0.303,-0.153 -0.099,-0.036 -0.201,-0.064 -0.327,-0.105 -0.224,-0.073 -0.409,-0.212 -0.62,-0.312 -0.325,-0.155 -0.838,-0.401 -1.0689996,-0.694 -0.203,-0.258 -0.326,-0.561 -0.557,-0.789 -0.077,-0.076 -0.166,-0.143 -0.274,-0.198 -0.077,-0.039 -0.155,-0.059 -0.234,-0.076 -0.079,-0.016 -0.159,-0.029 -0.24,-0.054 -0.204,-0.062 -0.374,-0.175 -0.568,-0.261 -0.316,-0.138 -0.603,-0.306 -0.909,-0.46 -0.199,-0.1 -0.413,-0.153 -0.621,-0.214 -0.272,-0.079 -0.31,-0.215 -0.504,-0.421 -0.164,-0.173 -0.25,-0.189 -0.437,-0.275 -0.141,-0.065 -0.168,-0.038 -0.323,-0.155 -0.063,-0.047 -0.107,-0.114 -0.123,-0.213 -0.016,-0.098 -0.005,-0.228 0.044,-0.399 1.494,0.164 2.988,0.328 4.482,0.492 0.7849996,0.086 1.5689996,0.172 2.3539996,0.259 0.425,0.046 0.851,0.093 1.276,0.14 0.37,0.04 1.042,-0.017 1.325,0.253 0.262,0.251 0.304,0.794 0.438,1.133 0.164,0.414 0.257,0.815 0.316,1.232 0.019,0.134 0.029,0.258 0.016,0.378 -0.013,0.119 -0.05,0.235 -0.124,0.354 m -0.455,3.059 c -0.203,0.203 -0.384,0.173 -0.632,0.287 -0.129,0.059 -0.266,0.125 -0.408,0.189 -0.285,0.126 -0.591,0.24 -0.894,0.256 -0.152,0.008 -0.302,-0.009 -0.449,-0.06 -0.206,-0.072 -0.465,-0.241 -0.673,-0.346 -0.304,-0.152 -0.612,-0.333 -0.899,-0.52 -0.481,-0.314 -0.9939996,-0.514 -1.4609996,-0.788 -0.124,-0.072 -0.332,-0.101 -0.439,-0.194 -0.062,-0.054 -0.083,-0.147 -0.145,-0.202 -0.089,-0.078 -0.319,-0.159 -0.433,-0.197 -0.082,0.009 -0.16,-0.005 -0.234,-0.042 -0.069,-0.074 -0.138,-0.147 -0.209,-0.219 -0.145,-0.086 -0.34,-0.111 -0.495,-0.194 -0.183,-0.097 -0.38,-0.218 -0.556,-0.329 -0.228,-0.145 -0.396,-0.2 -0.632,-0.309 -0.147,-0.067 -0.16,-0.154 -0.262,-0.244 -0.426,-0.377 -0.936,-0.778 -1.412,-1.111 -0.166,-0.117 -0.351,-0.24 -0.404,-0.429 -0.017,-0.063 -0.02,-0.133 -0.002,-0.213 0.028,-0.131 0.039,-0.164 0.067,-0.177 0.029,-0.013 0.074,-0.007 0.173,-0.059 0.143,-0.076 0.227,-0.169 0.563,-0.51 0.082,0.009 0.158,0.016 0.229,0.023 0.142,0.015 0.266,0.035 0.392,0.085 0.064,0.025 0.127,0.058 0.193,0.102 0.205,0.136 0.402,0.282 0.612,0.415 0.166,0.105 0.374,0.168 0.533,0.275 0.223,0.148 0.385,0.292 0.615,0.426 0.446,0.259 0.821,0.581 1.191,0.913 0.371,0.331 0.738,0.67 1.166,0.961 0.087,0.06 0.1669996,0.129 0.2509996,0.193 0.305,0.231 0.594,0.478 0.884,0.742 0.073,0.066 0.143,0.139 0.214,0.215 0.212,0.227 0.428,0.471 0.709,0.573 0.332,0.121 0.667,0.131 0.994,0.06 0.109,-0.024 0.218,-0.056 0.324,-0.097 0.303,-0.114 0.607,-0.175 0.916,-0.226 0.31,-0.051 0.625,-0.091 0.95,-0.164 0.309,0.314 -0.136,0.715 -0.337,0.915 m -9.3729996,-12.617 c 0.206,-0.207 0.356,-0.451 0.547,-0.66 0.183,-0.199 0.422,-0.38 0.609,-0.587 0.076,-0.084 0.126,-0.193 0.206,-0.279 0.099,-0.104 0.241,-0.179 0.334,-0.286 0.092,-0.107 0.129,-0.263 0.217,-0.377 0.092,-0.118 0.233,-0.245 0.341,-0.351 0.172,-0.169 0.316,-0.326 0.471,-0.514 0.176,-0.212 0.428,-0.37 0.602,-0.583 0.152,-0.188 0.452,-0.378 0.479,-0.619 0.257,0.035 0.531,-0.34 0.742,-0.476 0.2629996,-0.17 0.5649996,-0.361 0.8319996,-0.506 0.516,-0.28 1.379,-0.831 1.929,-0.359 0.281,0.242 0.369,0.718 0.483,1.048 0.119,0.346 0.134,0.657 0.215,0.977 0.07,0.276 0.233,0.526 0.43,0.738 0.038,0.04 0.136,0.023 0.173,0.062 0.067,0.07 0.114,0.215 0.172,0.297 0.125,0.18 0.262,0.372 0.503,0.354 -0.817,0.228 -1.469,0.549 -1.964,0.741 -0.158,0.061 -0.342,0.098 -0.528,0.13 -0.186,0.032 -0.374,0.057 -0.542,0.096 -0.347,0.08 -0.696,0.17 -1.044,0.259 -0.343,0.087 -0.6959996,0.133 -1.0279996,0.241 -0.543,0.176 -1.086,0.059 -1.609,0.26 -0.438,0.168 -0.898,0.224 -1.335,0.374 -0.285,0.098 -0.524,0.257 -0.816,0.336 -0.116,0.032 -0.47,0.094 -0.558,-0.027 -0.031,-0.042 -0.044,-0.075 -0.044,-0.103 -10e-4,-0.082 0.11,-0.112 0.183,-0.186 m -2.741,-0.143 c -0.266,0.376 -1.044,0.114 -1.421,0.077 -0.632,-0.061 -0.954,0.286 -1.364,0.693 -0.176,0.174 -0.959,0.741 -0.733,0.989 l -0.249,0.092 c -0.294,-0.096 -0.195,-0.386 -0.171,-0.616 0.03,-0.288 0.144,-0.325 0.274,-0.565 0.244,-0.453 0.422,-0.949 0.744,-1.361 0.594,-0.762 1.65,-1.058 2.496,-0.672 0.152,0.069 0.137,0.034 0.248,0.134 0.099,0.089 0.253,0.326 0.277,0.457 0.027,0.139 -0.013,0.648 -0.101,0.772 m -0.545,2.981 c -0.03,0.275 -0.048,0.555 -0.09,0.828 -0.038,0.247 -0.174,0.326 -0.268,0.528 -0.157,0.337 -0.282,0.626 -0.492,0.943 -0.143,0.216 -0.279,0.383 -0.396,0.615 -0.13,0.256 -0.266,0.479 -0.412,0.727 -0.133,0.225 -0.255,0.367 -0.389,0.59 -0.225,0.372 -0.669,0.68 -1.115,0.621 -0.611,0.057 -0.797,-0.417 -0.829,-0.623 -0.027,-0.171 -0.07,-0.384 -0.003,-0.556 0.053,-0.138 0.127,-0.166 0.164,-0.326 0.068,-0.3 0.067,-0.641 0.101,-0.947 0.036,-0.332 0.095,-0.573 0.204,-0.874 0.105,-0.292 0.231,-0.541 0.371,-0.827 0.134,-0.275 0.263,-0.616 0.484,-0.862 0.205,-0.227 0.323,-0.488 0.526,-0.726 0.138,-0.16 0.273,-0.338 0.385,-0.509 0.148,-0.225 0.172,-0.458 0.467,-0.48 0.233,-0.018 0.639,0.044 0.824,0.163 0.549,0.355 0.53,1.148 0.468,1.715 m -4.624,0.532 c -0.024,0.248 0.013,0.578 -0.181,0.73 -0.109,0.086 -0.352,0.06 -0.487,0.108 -0.099,0.035 -0.188,0.092 -0.277,0.137 -0.246,0.125 -0.483,0.103 -0.744,0.181 -0.207,0.062 -0.36,0.179 -0.576,0.236 -0.412,0.109 -0.824,0.227 -1.235,0.34 -0.536,0.147 -1.018,0.428 -1.534,0.586 -0.488,0.15 -1.002,0.271 -1.498,0.401 -0.614,0.161 -1.211,0.25 -1.836,0.336 -0.355,0.049 -0.686,0.145 -1.043,0.185 -0.326,0.036 -0.582,0.211 -0.892,0.266 -0.131,0.023 -0.239,-0.037 -0.362,-0.023 -0.148,0.018 -0.194,0.087 -0.36,0.09 -0.115,0.002 -0.241,-0.059 -0.356,-0.048 -0.131,0.013 -0.237,0.083 -0.368,0.091 -0.2,0.013 -0.755,-0.018 -0.925,-0.099 -0.176,-0.084 -0.324,-0.347 -0.475,-0.509 -0.265,-0.282 -0.281,-0.491 -0.231,-0.864 0.04,-0.298 -0.077,-0.454 -0.039,-0.748 0.044,-0.34 -0.05,-0.63 -0.015,-0.965 0.032,-0.297 0.184,-0.508 -0.169,-0.61 0.193,0.088 0.146,-0.036 0.266,-0.084 0.224,-0.089 0.332,-0.182 0.603,-0.214 0.32,-0.039 0.655,-0.097 0.967,-0.098 0.507,-0.001 1.016,-0.136 1.528,-0.071 0.142,0.018 0.286,0.049 0.428,0.037 0.093,-0.008 0.102,-0.083 0.202,-0.093 0.256,-0.028 0.463,0.049 0.724,-0.005 0.246,-0.05 0.452,-0.079 0.699,-0.072 0.311,0.009 0.565,-0.129 0.872,-0.143 0.262,-0.012 0.525,-0.054 0.787,-0.035 0.243,0.018 0.327,-0.022 0.539,-0.062 0.246,-0.047 0.563,-0.098 0.823,-0.118 0.287,-0.023 0.584,0.096 0.864,0.044 0.129,-0.025 0.239,-0.125 0.366,-0.152 0.184,-0.039 0.371,0.028 0.559,0.012 0.09,-0.008 0.177,-0.059 0.283,-0.065 0.104,-0.006 0.239,0.036 0.337,0.042 0.266,0.018 0.476,-0.073 0.748,-0.039 0.236,0.029 0.472,0.052 0.709,0.077 0.241,0.026 0.41,0.041 0.604,0.15 0.208,0.118 0.363,0.301 0.519,0.475 0.195,0.219 0.205,0.299 0.176,0.593 m -1.675,3.01 c -0.205,0.207 -0.355,0.452 -0.546,0.66 -0.183,0.2 -0.422,0.38 -0.609,0.587 -0.076,0.084 -0.126,0.194 -0.207,0.279 -0.099,0.105 -0.241,0.179 -0.333,0.286 -0.092,0.107 -0.129,0.264 -0.218,0.378 -0.091,0.117 -0.232,0.244 -0.34,0.35 -0.172,0.17 -0.316,0.327 -0.472,0.514 -0.175,0.212 -0.427,0.37 -0.601,0.584 -0.152,0.187 -0.452,0.377 -0.48,0.618 -0.256,-0.034 -0.531,0.34 -0.741,0.476 -0.263,0.17 -0.565,0.361 -0.833,0.506 -0.516,0.281 -1.378,0.831 -1.928,0.359 -0.281,-0.241 -0.37,-0.718 -0.483,-1.048 -0.119,-0.345 -0.134,-0.657 -0.215,-0.977 -0.07,-0.275 -0.234,-0.525 -0.431,-0.737 -0.037,-0.041 -0.135,-0.024 -0.173,-0.063 -0.066,-0.07 -0.113,-0.214 -0.171,-0.297 -0.125,-0.18 -0.262,-0.372 -0.504,-0.354 0.818,-0.228 1.47,-0.549 1.965,-0.741 0.317,-0.122 0.734,-0.148 1.07,-0.226 0.347,-0.08 0.696,-0.17 1.044,-0.259 0.343,-0.087 0.696,-0.133 1.028,-0.24 0.543,-0.177 1.086,-0.06 1.609,-0.26 0.438,-0.168 0.898,-0.225 1.335,-0.375 0.285,-0.097 0.524,-0.257 0.816,-0.336 0.115,-0.031 0.47,-0.094 0.558,0.027 0.123,0.17 -0.042,0.191 -0.14,0.289 m -9.827,-9.557 c 0.245,-0.393 0.561,-0.638 0.962,-0.853 0.37,-0.199 0.581,-0.143 0.994,-0.101 0.407,0.041 0.72,0.191 1.062,0.415 0.221,0.145 0.378,0.177 0.63,0.259 0.224,0.072 0.409,0.211 0.619,0.312 0.325,0.154 0.839,0.4 1.069,0.693 0.271,0.344 0.401,0.769 0.832,0.987 0.154,0.078 0.312,0.081 0.474,0.13 0.204,0.062 0.374,0.175 0.568,0.261 0.315,0.139 0.602,0.306 0.909,0.461 0.199,0.1 0.412,0.153 0.621,0.213 0.272,0.079 0.309,0.216 0.504,0.421 0.164,0.173 0.25,0.189 0.436,0.275 0.142,0.066 0.168,0.038 0.324,0.155 0.126,0.094 0.176,0.27 0.079,0.612 -1.494,-0.164 -2.988,-0.328 -4.483,-0.492 -0.784,-0.086 -1.569,-0.172 -2.353,-0.258 -0.426,-0.047 -0.851,-0.094 -1.277,-0.14 -0.369,-0.041 -1.042,0.017 -1.325,-0.254 -0.261,-0.251 -0.303,-0.793 -0.437,-1.132 -0.164,-0.415 -0.257,-0.816 -0.316,-1.232 -0.038,-0.27 -0.041,-0.495 0.108,-0.732 m 0.455,-3.06 c 0.203,-0.203 0.383,-0.173 0.632,-0.287 0.514,-0.235 1.163,-0.59 1.751,-0.385 0.206,0.072 0.465,0.241 0.673,0.346 0.304,0.153 0.612,0.334 0.898,0.52 0.482,0.314 0.995,0.515 1.462,0.788 0.123,0.072 0.332,0.101 0.439,0.194 0.062,0.055 0.083,0.148 0.145,0.202 0.089,0.078 0.319,0.159 0.432,0.197 0.083,-0.009 0.161,0.005 0.235,0.042 0.068,0.075 0.138,0.148 0.209,0.22 0.145,0.086 0.34,0.111 0.495,0.193 0.183,0.097 0.379,0.218 0.555,0.329 0.229,0.145 0.396,0.201 0.633,0.309 0.147,0.068 0.16,0.154 0.262,0.245 0.426,0.376 0.936,0.777 1.412,1.111 0.221,0.155 0.476,0.323 0.406,0.641 -0.058,0.262 -0.043,0.131 -0.241,0.236 -0.142,0.076 -0.226,0.17 -0.563,0.51 -0.327,-0.035 -0.549,-0.034 -0.813,-0.209 -0.205,-0.137 -0.403,-0.283 -0.612,-0.415 -0.166,-0.106 -0.374,-0.169 -0.534,-0.275 -0.222,-0.149 -0.385,-0.293 -0.615,-0.426 -0.89,-0.518 -1.5,-1.292 -2.356,-1.875 -0.406,-0.277 -0.765,-0.597 -1.136,-0.935 -0.289,-0.263 -0.548,-0.652 -0.922,-0.788 -0.443,-0.161 -0.891,-0.125 -1.319,0.037 -0.605,0.229 -1.215,0.244 -1.865,0.39 -0.309,-0.313 0.135,-0.715 0.337,-0.915 m 31.5019996,5.55 c -0.153,-0.211 -0.28,-0.439 -0.481,-0.623 -0.57,-0.525 -1.288,-0.662 -1.904,-1.103 -0.244,-0.174 -0.427,-0.246 -0.577,-0.509 -0.142,-0.25 -0.156,-0.499 -0.27,-0.753 -0.125,-0.277 -0.23,-0.431 -0.282,-0.747 -0.031,-0.183 -0.075,-0.43 -0.173,-0.587 -0.065,-0.105 -0.157,-0.163 -0.213,-0.286 -0.054,-0.12 -0.07,-0.259 -0.129,-0.376 -0.113,-0.222 -0.293,-0.447 -0.44,-0.646 -0.111,-0.149 -0.333,-0.526 -0.54,-0.552 -0.111,-0.013 -0.202,0.081 -0.309,0.091 -0.104,0.01 -0.195,-0.027 -0.299,-0.026 -0.371,0.002 -0.859,0.175 -1.227,0.316 -0.453,0.175 -0.92,0.257 -1.3669996,0.478 -0.235,0.116 -0.487,0.192 -0.724,0.308 -0.147,0.073 -0.364,0.102 -0.497,0.179 -0.352,0.203 -0.68,0.519 -0.926,0.837 -0.529,0.686 -0.976,1.415 -1.523,2.091 -0.339,0.42 -0.67,0.875 -1.024,1.278 -0.191,0.217 -0.31,0.35 -0.536,0.468 -0.164,0.086 -0.267,0.265 -0.495,0.186 -0.137,-0.102 -0.188,-0.456 -0.376,-0.818 -0.157,-0.303 -0.461,-0.35 -0.774,-0.39 -0.425,-0.054 -0.888,-0.129 -1.316,-0.145 -0.045,-0.002 -0.086,0.002 -0.126,0.005 l 0.016,-0.154 c -0.058,0.056 -0.114,0.114 -0.166,0.175 -0.096,0.021 -0.183,0.052 -0.267,0.091 -0.102,-0.133 -0.331,-0.12 -0.531,-0.14 -0.226,-0.021 -0.597,-0.152 -0.806,-0.065 -0.157,0.066 -0.404,0.282 -0.542,0.392 -0.2,0.16 -0.338,0.346 -0.498,0.537 -0.032,0.039 -0.056,0.08 -0.086,0.119 -0.037,-0.036 -0.076,-0.062 -0.121,-0.086 0.022,-0.091 -0.013,-0.192 -0.034,-0.403 -0.028,-0.288 0.103,-0.523 -0.093,-0.797 -0.175,-0.245 -0.509,-0.383 -0.772,-0.515 -0.296,-0.149 -0.584,-0.093 -0.884,-0.195 -0.315,-0.106 -0.593,-0.318 -0.905,-0.44 -0.188,-0.074 -0.404,-0.085 -0.575,-0.204 -0.047,-0.032 -0.09,-0.112 -0.119,-0.132 -0.282,-0.191 -0.584,-0.34 -0.846,-0.574 -0.162,-0.145 -0.297,-0.322 -0.477,-0.441 -0.479,-0.315 -0.975,-0.601 -1.413,-0.982 -0.331,-0.288 -0.676,-0.553 -0.98,-0.858 -0.227,-0.227 -0.511,-0.472 -0.777,-0.628 -0.285,-0.168 -0.462,-0.46 -0.755,-0.617 -0.258,-0.138 -0.561,-0.125 -0.847,-0.157 -0.98,-0.109 -2.607,-0.563 -3.352,0.224 -0.115,0.121 -0.275,0.196 -0.386,0.322 -0.046,0.052 -0.137,0.303 -0.173,0.366 -0.124,0.213 -0.31,0.421 -0.409,0.646 -0.091,0.207 -0.129,0.484 -0.194,0.701 -0.057,0.192 -0.068,0.381 -0.09,0.582 -0.033,0.293 -0.131,0.631 -0.107,0.92 0.018,0.23 0.069,0.384 0.054,0.622 -0.018,0.286 0.02,0.499 0.128,0.769 0.116,0.291 0.058,0.351 0.07,0.663 0.012,0.317 0.086,0.639 0.114,0.958 0.028,0.324 -0.048,0.67 -0.083,0.993 -0.038,0.347 -0.016,0.863 -0.267,1.132 -0.111,0.12 -0.32,0.26 -0.462,0.365 -0.089,0.066 -0.189,0.095 -0.268,0.177 -0.046,0.048 -0.026,0.16 -0.073,0.211 -0.138,0.15 -0.182,0.166 -0.28,0.348 -0.118,0.22 -0.114,0.412 -0.188,0.646 -0.082,0.262 -0.255,0.539 -0.31,0.835 -0.038,0.206 -0.041,0.426 -0.063,0.635 -0.054,0.484 -0.105,0.969 -0.16,1.452 -0.058,0.511 0.058,0.798 0.424,1.171 0.123,0.125 0.288,0.252 0.406,0.415 0.154,0.211 0.281,0.439 0.481,0.623 0.571,0.524 1.288,0.662 1.905,1.102 0.243,0.175 0.427,0.246 0.577,0.509 0.142,0.25 0.156,0.5 0.27,0.753 0.125,0.278 0.229,0.432 0.282,0.747 0.031,0.184 0.075,0.43 0.172,0.587 0.065,0.105 0.158,0.163 0.214,0.287 0.054,0.119 0.07,0.258 0.129,0.375 0.112,0.222 0.292,0.447 0.44,0.646 0.111,0.15 0.333,0.526 0.54,0.552 0.11,0.014 0.202,-0.08 0.309,-0.09 0.104,-0.01 0.195,0.026 0.298,0.026 0.372,-0.002 0.86,-0.176 1.227,-0.317 0.454,-0.175 0.92,-0.257 1.367,-0.477 0.236,-0.117 0.488,-0.193 0.725,-0.309 0.147,-0.072 0.364,-0.102 0.497,-0.178 0.352,-0.204 0.68,-0.52 0.925,-0.837 0.53,-0.687 0.977,-1.416 1.524,-2.092 0.339,-0.419 0.669,-0.875 1.024,-1.278 0.191,-0.217 0.309,-0.349 0.536,-0.468 0.163,-0.086 0.266,-0.264 0.495,-0.185 0.137,0.101 0.187,0.455 0.376,0.818 0.157,0.302 0.461,0.349 0.774,0.389 0.425,0.054 0.888,0.129 1.316,0.145 0.045,0.002 0.085,-0.002 0.126,-0.005 l -0.017,0.154 c 0.059,-0.056 0.114,-0.114 0.167,-0.175 0.096,-0.021 0.183,-0.052 0.267,-0.091 0.101,0.134 0.33,0.121 0.531,0.14 0.225,0.022 0.596,0.153 0.806,0.065 0.157,-0.066 0.404,-0.281 0.542,-0.391 0.181,-0.146 0.313,-0.313 0.455,-0.486 0.072,0.056 0.159,0.092 0.252,0.107 0.01,0.057 0.022,0.123 0.031,0.211 0.029,0.289 -0.103,0.524 0.094,0.798 0.175,0.245 0.509,0.382 0.772,0.514 0.295,0.15 0.584,0.094 0.883,0.195 0.315,0.106 0.594,0.319 0.905,0.441 0.189,0.074 0.405,0.084 0.576,0.203 0.047,0.033 0.09,0.113 0.119,0.132 0.282,0.191 0.584,0.34 0.845,0.574 0.162,0.145 0.298,0.323 0.478,0.441 0.479,0.315 0.975,0.601 1.413,0.983 0.331,0.287 0.675,0.553 0.98,0.857 0.2269996,0.227 0.5109996,0.473 0.7769996,0.629 0.285,0.167 0.462,0.459 0.755,0.616 0.257,0.138 0.56,0.126 0.847,0.158 0.98,0.108 2.607,0.563 3.351,-0.224 0.115,-0.122 0.276,-0.196 0.387,-0.323 0.046,-0.052 0.137,-0.302 0.173,-0.365 0.123,-0.214 0.31,-0.422 0.409,-0.646 0.091,-0.207 0.129,-0.485 0.193,-0.702 0.058,-0.191 0.069,-0.38 0.091,-0.582 0.032,-0.293 0.13,-0.631 0.107,-0.92 -0.018,-0.23 -0.069,-0.383 -0.054,-0.621 0.018,-0.287 -0.02,-0.5 -0.128,-0.769 -0.116,-0.291 -0.058,-0.352 -0.07,-0.663 -0.012,-0.318 -0.086,-0.64 -0.114,-0.959 -0.028,-0.323 0.047,-0.67 0.083,-0.993 0.038,-0.347 0.016,-0.862 0.267,-1.132 0.111,-0.119 0.319,-0.26 0.462,-0.365 0.089,-0.066 0.189,-0.094 0.267,-0.177 0.047,-0.048 0.027,-0.16 0.073,-0.21 0.138,-0.15 0.183,-0.166 0.281,-0.349 0.118,-0.219 0.114,-0.412 0.187,-0.646 0.083,-0.262 0.256,-0.538 0.311,-0.835 0.038,-0.205 0.04,-0.426 0.063,-0.635 0.053,-0.484 0.104,-0.968 0.16,-1.452 0.058,-0.51 -0.058,-0.798 -0.424,-1.17 -0.123,-0.125 -0.289,-0.253 -0.407,-0.415" /></g><text
         xml:space="preserve"
         style="font-size:4.9389px;display:inline;fill:#000000;fill-rule:nonzero;stroke-width:5.29176"
         x="59.853333"
         y="41.335232"
         id="text1095-4"><tspan
           id="tspan1096-1"
           x="59.853333"
           y="41.335232">The Midwinter Gala</tspan></text><path
         id="path53-2"
         clip-path="url(#clipPath54-5)"
         style="fill:#252021;fill-opacity:1;fill-rule:nonzero;stroke:none"
         transform="matrix(0.08284499,0,0,0.08283722,31.503567,44.726745)"
         d="M 0,0 C 0.007,-0.119 0.013,-0.239 0.02,-0.358 0.427,-0.484 0.835,-0.61 1.301,-0.754 1.358,-1.641 1.079,-2.096 0.265,-2.763 c -2.271,-1.86 -4.82,-1.376 -7.162,-1.009 -2.161,0.339 -3.798,2.04 -4.881,4.068 -0.718,1.345 -1.509,2.638 -1.327,4.28 0.145,1.311 0.88,2.206 2.108,2.519 0.619,0.157 1.24,0.427 1.77,0.781 1.185,0.789 2.421,1.267 3.875,1.237 0.645,-0.014 1.295,0.252 1.946,0.371 0.167,0.03 0.351,0.007 0.52,-0.027 C -2.309,9.34 -1.737,9.11 -1.159,9.096 1.366,9.037 3.374,7.867 5.147,6.213 5.892,5.519 5.337,3.158 4.418,2.193 3.209,0.922 1.831,0.064 0,0 m -18.536793,-40.802995 c 0.031,-0.002 0.062,-0.003 0.094,-0.005 -0.259,0.002 -0.5,0.009 -0.745,0.037 0.098,-0.004 0.202,-0.009 0.312,-0.014 -0.06,0.005 -0.12,0.007 -0.181,0.014 0.217,-0.009 0.463,-0.021 0.745,-0.037 -0.077,0 -0.15,0.003 -0.225,0.005 M 16.563808,3.0962085 c 0.133,0.561 0.219,1.136 0.285,1.717 -0.066,-0.581 -0.152,-1.156 -0.285,-1.717 m -2.371294,5.4748012 c -0.02,-0.155 -0.038,-0.311 -0.062,-0.465 0.024,0.154 0.042,0.31 0.062,0.465 M 9.7638072,1.8935043 c -0.005,-1.41300004 -0.046,-2.82600004 -0.128,-4.235 0.082,1.40899996 0.123,2.82199996 0.128,4.235 M -48.185387,-1.2432993 c -0.005,0.115 -0.003,0.231 -0.008,0.347 0.019,-0.482 0.035,-0.964 0.064,-1.445 -0.022,0.366 -0.04,0.732 -0.056,1.098 m -7.157798,6.0562076 c 0.066,-0.581 0.152,-1.155 0.285,-1.717 -0.133,0.562 -0.219,1.136 -0.285,1.717 m 3.037894,1.7555944 c -0.134,0.498 -0.233,1.006 -0.315,1.518 0.082,-0.512 0.181,-1.02 0.315,-1.518 m 69.283904,5.0778023 c -0.002,0.006 -0.004,0.012 -0.006,0.019 -0.339,1.084 -0.685,2.166 -1.048,3.243 -0.16,0.475 -0.322,0.949 -0.49,1.421 -0.215,0.498 -1.204,2.793 -1.908,3.983 -0.093,0.17 -0.182,0.342 -0.279,0.511 -0.484,0.517 -0.498,0.091 -0.436,-0.416 0.016,-0.198 0.05,-0.448 0.103,-0.758 0.068,-0.285 0.156,-0.569 0.25,-0.852 0.093,-0.283 0.193,-0.565 0.285,-0.847 0.184,-0.564 0.338,-1.128 0.354,-1.698 -0.019,-1.685 0.319,-3.34 0.52,-5.008 0.015,-0.406 0.016,-0.807 0.002,-1.205 -0.017,-0.497 -0.071,-0.984 -0.133,-1.468 -0.02,-0.155 -0.038,-0.311 -0.062,-0.465 -0.083,-0.519 -0.184,-1.033 -0.32,-1.538 -0.037,-0.438 0.023,-0.931 0.006,-1.386 -0.007,-0.174 -0.023,-0.343 -0.062,-0.501 -0.465,-0.697 -0.461,-1.448 -0.426,-2.201 0.016,-0.342 0.038,-0.685 0.026,-1.023 0,-0.012 0.003,-0.026 0.004,-0.039 0.022,-0.316 0.305,-0.696 0.666,-0.967 0.412,-0.31 0.92,-0.473 1.251,-0.225 0.012,0.009 0.025,0.015 0.037,0.025 0.158,0.218 0.298,0.442 0.426,0.67 0.389,0.691 0.647,1.421 0.825,2.175 0.133,0.561 0.22,1.136 0.285,1.717 0.082,0.718 0.131,1.446 0.183,2.171 0.018,0.575 0.036,1.157 0.043,1.741 0.012,0.98 -0.006,1.964 -0.096,2.921 m -7.2309999,-7.76 c -0.01,0.555 -0.024,1.109 -0.043,1.663 -0.022,0.654 -0.05,1.307 -0.083,1.959 -0.047,0.933 -0.104,1.863 -0.168,2.789 0.268,2.899 -1.559,5.568 -2.497,8.188 -0.769,2.147 -2.081,4.062 -2.82,6.277 -0.602,1.804 -1.893,3.372 -2.823,5.075 -0.871,1.595 -1.712,3.211 -2.481,4.858 -0.354,0.756 -0.439,1.635 -0.758,2.412 -0.574,1.396 -1.307,2.73 -1.837,4.141 -0.671,2.399 -1.615,4.923 -2.881,7.24 -0.016,0.03 -0.033,0.06 -0.049,0.09 -0.067,0.123 -0.136,0.246 -0.205,0.368 -1.733,3.081 -4.0510001,5.751 -7.1630001,7.157 -0.008,0.004 -0.016,0.007 -0.024,0.011 -0.147,0.068 -0.297,0.13 -0.447,0.192 -1.322,0.55 -2.772,0.874 -4.36,0.914 -0.218,0.108 -0.317,0.287 -0.356,0.522 -0.038,-0.235 -0.137,-0.414 -0.355,-0.522 -1.588,-0.04 -3.039,-0.364 -4.36,-0.914 -0.15,-0.062 -0.301,-0.124 -0.448,-0.192 -0.007,-0.004 -0.015,-0.007 -0.023,-0.011 -3.112,-1.406 -5.431,-4.076 -7.164,-7.157 -0.069,-0.122 -0.137,-0.245 -0.204,-0.368 -0.017,-0.03 -0.033,-0.06 -0.05,-0.09 -1.265,-2.317 -2.209,-4.841 -2.88,-7.24 -0.53,-1.411 -1.263,-2.745 -1.837,-4.141 -0.319,-0.777 -0.405,-1.656 -0.758,-2.412 -0.769,-1.647 -1.61,-3.263 -2.482,-4.858 -0.93,-1.703 -2.221,-3.271 -2.823,-5.075 -0.739,-2.215 -2.05,-4.13 -2.819,-6.277 -0.938,-2.62 -2.765,-5.289 -2.497,-8.188 -0.065,-0.926 -0.122,-1.856 -0.169,-2.789 -0.033,-0.652 -0.06,-1.305 -0.082,-1.959 -0.019,-0.554 -0.034,-1.108 -0.044,-1.663 -0.012,-0.664 -0.018,-1.328 -0.016,-1.993 0.004,-0.93 0.029,-1.86 0.065,-2.79 0.005,-0.115 0.003,-0.231 0.008,-0.347 0.016,-0.366 0.034,-0.732 0.056,-1.097 0.018,-0.317 0.039,-0.633 0.062,-0.948 0.033,-0.455 0.069,-0.909 0.112,-1.363 0.069,-1.705 0.078,-3.415 0.05,-5.121 -0.037,-2.274 1.202,-3.952 1.964,-6.074 0.411,-1.145 0.779,-2.842 1.097,-4.025 0.133,-0.494 0.446,-0.936 0.615,-1.424 1.022,-2.957 2.364,-5.764 3.891,-8.491 2.157,-6.068 11.543,-9.051 21.091,-8.91 9.5490001,-0.141 18.9350001,2.842 21.0920001,8.91 1.526,2.727 2.868,5.534 3.891,8.491 0.169,0.488 0.482,0.93 0.615,1.424 0.318,1.183 0.685,2.88 1.097,4.025 0.761,2.122 2,3.8 1.963,6.074 -0.027,1.706 -0.018,3.416 0.05,5.121 0.043,0.454 0.079,0.908 0.113,1.363 0.023,0.315 0.043,0.631 0.062,0.948 0.083,1.408 0.123,2.821 0.128,4.234 0.002,0.665 -0.003,1.329 -0.016,1.993 m -61.4900001,16.937 c -0.096,-0.169 -0.185,-0.341 -0.279,-0.511 -0.703,-1.189 -1.692,-3.485 -1.907,-3.983 -0.168,-0.472 -0.331,-0.946 -0.491,-1.421 -0.363,-1.077 -0.708,-2.159 -1.048,-3.243 -0.002,-0.007 -0.003,-0.013 -0.005,-0.019 -0.085,-0.892 -0.105,-1.807 -0.098,-2.72 0.006,-0.651 0.024,-1.301 0.045,-1.942 0.052,-0.725 0.101,-1.453 0.182,-2.171 0.066,-0.581 0.153,-1.156 0.285,-1.717 0.179,-0.754 0.437,-1.484 0.826,-2.175 0.128,-0.228 0.267,-0.452 0.426,-0.67 0.011,-0.01 0.025,-0.016 0.037,-0.025 0.33,-0.248 0.838,-0.085 1.25,0.225 0.362,0.271 0.645,0.651 0.666,0.967 10e-4,0.013 0.005,0.027 0.005,0.039 -0.013,0.338 0.01,0.681 0.026,1.023 0.017,0.377 0.027,0.753 -0.026,1.122 -0.052,0.369 -0.168,0.731 -0.4,1.079 -0.048,0.194 -0.063,0.405 -0.065,0.622 -0.004,0.421 0.043,0.866 0.008,1.265 -0.134,0.498 -0.232,1.006 -0.315,1.519 -0.042,0.256 -0.086,0.512 -0.115,0.772 -0.042,0.389 -0.071,0.783 -0.085,1.18 -0.013,0.398 -0.013,0.799 0.003,1.205 0.2,1.668 0.538,3.323 0.52,5.008 0.016,0.57 0.17,1.134 0.354,1.698 0.092,0.282 0.191,0.564 0.285,0.847 0.093,0.283 0.181,0.567 0.25,0.852 v 0.001 c 0.053,0.309 0.086,0.559 0.103,0.757 0.061,0.507 0.048,0.933 -0.437,0.416 m 65.072,-23.918 c -0.506,-6.95 -2.297,-13.562 -4.8629999,-19.987 -2.468,-12.851 -16.102,-16.543 -27.5710001,-17.682 0.016,-0.002 0.032,-0.006 0.048,-0.007 -0.066,0.003 -0.127,0.003 -0.191,0.001 -0.063,0.002 -0.124,0.002 -0.19,-0.001 0.015,0.001 0.032,0.005 0.047,0.007 -11.469,1.139 -25.103,4.831 -27.57,17.682 -2.567,6.425 -4.357,13.037 -4.864,19.987 -2.257,1.574 -5.577,4.089 -5.553,7.099 -0.012,3.724 0.529,7.45 0.822,11.144 0.193,1.332 0.595,2.582 1.189,3.79 0.23,0.756 0.563,1.486 0.981,2.157 0.557,1.707 1.573,3.198 2.24,4.86 0.632,0.866 1.056,1.827 1.626,2.735 0.548,0.448 0.668,1.15 0.626,1.836 1.407,3.736 2.755,7.464 4.448,11.085 0.355,0.775 0.867,1.459 1.436,2.106 1.089,1.237 2.145,2.502 3.118,3.832 0.756,1.032 1.589,2.004 2.611,2.797 2.87,2.286 6.154,4.068 9.2,6.072 2.869,1.984 6.412,2.489 9.833,2.724 -0.003,-0.104 -0.002,-0.205 0,-0.304 -0.002,0.099 -0.003,0.2 0,0.304 3.422,-0.235 6.965,-0.74 9.8330001,-2.724 3.046,-2.004 6.331,-3.786 9.201,-6.072 1.021,-0.793 1.855,-1.765 2.611,-2.797 0.973,-1.33 2.029,-2.595 3.118,-3.832 0.569,-0.647 1.081,-1.331 1.436,-2.106 1.692,-3.621 3.041,-7.349 4.4469999,-11.085 -0.042,-0.686 0.079,-1.388 0.627,-1.836 0.57,-0.908 0.994,-1.869 1.625,-2.735 0.667,-1.662 1.683,-3.153 2.241,-4.86 0.417,-0.671 0.75,-1.401 0.98,-2.157 0.595,-1.208 0.997,-2.458 1.19,-3.79 0.293,-3.694 0.834,-7.42 0.822,-11.144 0.024,-3.01 -3.296,-5.525 -5.554,-7.099 m -32.636311,-37.6765 c -0.245,-0.028 -0.486,-0.035 -0.745,-0.037 0.033,0.002 0.063,0.003 0.094,0.005 -0.074,-0.002 -0.148,-0.004 -0.225,-0.005 0.282,0.016 0.528,0.028 0.745,0.037 -0.06,-0.007 -0.12,-0.009 -0.181,-0.014 0.11,0.006 0.215,0.01 0.312,0.014 m -12.290686,36.9991971 c -2.342,-0.367 -4.891,-0.852 -7.162,1.009 -0.814,0.667 -1.093,1.122 -1.036,2.00899998 0.466,0.144 0.874,0.27 1.281,0.396 0.007,0.119 0.013,0.239 0.02,0.3579999981072 -1.831,0.064000001893 -3.209,0.9220000018928 -4.418,2.1930000218928 -0.919,0.965 -1.474,3.326 -0.729,4.02 1.773,1.654 3.781,2.824 6.307,2.883 0.577,0.014 1.149,0.244 1.726,0.361 0.169,0.034 0.353,0.057 0.52,0.027 0.651,-0.119 1.301,-0.385 1.946,-0.371 1.455,0.03 2.69,-0.448 3.875,-1.237 0.53,-0.354 1.152,-0.624 1.77,-0.781 1.229,-0.313 1.964,-1.208 2.109,-2.52 0.181,-1.641 -0.609,-2.934 -1.328,-4.27900002 -1.083,-2.02799998 -2.72,-3.72899998 -4.881,-4.06799998 M -2.6281904,68.406714 c -0.048,-0.022 -0.082,-0.031 -0.106,-0.031 -0.025,0.001 -0.041,0.009 -0.055,0.022 -0.027,0.027 -0.046,0.07 -0.105,0.093 -0.224,0.09 -0.332,0.182 -0.604,0.215 -0.319,0.038 -0.655,0.096 -0.966,0.097 -0.507,0.001 -1.016,0.137 -1.528,0.071 -0.071,-0.009 -0.143,-0.021 -0.214,-0.03 -0.072,-0.008 -0.143,-0.013 -0.214,-0.007 -0.094,0.008 -0.102,0.083 -0.203,0.094 -0.256,0.027 -0.462,-0.05 -0.724,0.004 -0.245,0.051 -0.451,0.079 -0.698,0.072 -0.156,-0.004 -0.297,0.028 -0.438,0.063 -0.141,0.036 -0.281,0.074 -0.435,0.081 -0.131,0.005 -0.262,0.019 -0.393,0.028 -0.131,0.01 -0.262,0.016 -0.393,0.006 -0.243,-0.018 -0.3279996,0.022 -0.5389996,0.063 -0.246,0.047 -0.563,0.097 -0.823,0.118 -0.287,0.023 -0.584,-0.097 -0.864,-0.044 -0.129,0.024 -0.239,0.125 -0.366,0.151 -0.184,0.039 -0.371,-0.027 -0.559,-0.011 -0.09,0.007 -0.178,0.059 -0.284,0.065 -0.103,0.005 -0.238,-0.037 -0.336,-0.043 -0.267,-0.017 -0.476,0.073 -0.748,0.04 -0.236,-0.029 -0.473,-0.053 -0.709,-0.078 -0.241,-0.025 -0.41,-0.04 -0.604,-0.15 -0.208,-0.117 -0.364,-0.301 -0.519,-0.475 -0.196,-0.219 -0.206,-0.299 -0.177,-0.593 0.025,-0.248 -0.012,-0.577 0.182,-0.73 0.109,-0.086 0.352,-0.059 0.487,-0.107 0.098,-0.035 0.188,-0.093 0.277,-0.138 0.245,-0.125 0.482,-0.102 0.743,-0.181 0.207,-0.062 0.361,-0.178 0.576,-0.236 0.413,-0.109 0.825,-0.227 1.236,-0.339 0.536,-0.147 1.017,-0.429 1.534,-0.587 0.488,-0.15 1.001,-0.27 1.4979996,-0.401 0.613,-0.161 1.21,-0.25 1.835,-0.336 0.356,-0.049 0.687,-0.145 1.043,-0.184 0.327,-0.037 0.583,-0.212 0.893,-0.267 0.131,-0.023 0.238,0.037 0.362,0.023 0.147,-0.017 0.193,-0.087 0.359,-0.09 0.116,-0.001 0.242,0.06 0.356,0.048 0.132,-0.012 0.238,-0.082 0.369,-0.091 0.199,-0.013 0.755,0.018 0.925,0.099 0.176,0.084 0.323,0.348 0.475,0.509 0.264,0.282 0.281,0.492 0.231,0.864 -0.04,0.298 0.076,0.454 0.039,0.748 -0.044,0.34 0.049,0.631 0.014,0.965 -0.023,0.223 -0.115,0.398 -0.01,0.514 0.035,0.038 0.092,0.071 0.18,0.096 m -2.101,6.369 c -0.122,0.196 -0.263,0.355 -0.423,0.492 -0.16,0.138 -0.339,0.253 -0.539,0.361 -0.278,0.149 -0.466,0.154 -0.717,0.13 -0.083,-0.008 -0.174,-0.019 -0.277,-0.03 -0.407,-0.041 -0.72,-0.191 -1.062,-0.415 -0.111,-0.072 -0.205,-0.116 -0.303,-0.153 -0.099,-0.036 -0.201,-0.064 -0.327,-0.105 -0.224,-0.073 -0.409,-0.212 -0.62,-0.312 -0.325,-0.155 -0.838,-0.401 -1.0689996,-0.694 -0.203,-0.258 -0.326,-0.561 -0.557,-0.789 -0.077,-0.076 -0.166,-0.143 -0.274,-0.198 -0.077,-0.039 -0.155,-0.059 -0.234,-0.076 -0.079,-0.016 -0.159,-0.029 -0.24,-0.054 -0.204,-0.062 -0.374,-0.175 -0.568,-0.261 -0.316,-0.138 -0.603,-0.306 -0.909,-0.46 -0.199,-0.1 -0.413,-0.153 -0.621,-0.214 -0.272,-0.079 -0.31,-0.215 -0.504,-0.421 -0.164,-0.173 -0.25,-0.189 -0.437,-0.275 -0.141,-0.065 -0.168,-0.038 -0.323,-0.155 -0.063,-0.047 -0.107,-0.114 -0.123,-0.213 -0.016,-0.098 -0.005,-0.228 0.044,-0.399 1.494,0.164 2.988,0.328 4.482,0.492 0.7849996,0.086 1.5689996,0.172 2.3539996,0.259 0.425,0.046 0.851,0.093 1.276,0.14 0.37,0.04 1.042,-0.017 1.325,0.253 0.262,0.251 0.304,0.794 0.438,1.133 0.164,0.414 0.257,0.815 0.316,1.232 0.019,0.134 0.029,0.258 0.016,0.378 -0.013,0.119 -0.05,0.235 -0.124,0.354 m -0.455,3.059 c -0.203,0.203 -0.384,0.173 -0.632,0.287 -0.129,0.059 -0.266,0.125 -0.408,0.189 -0.285,0.126 -0.591,0.24 -0.894,0.256 -0.152,0.008 -0.302,-0.009 -0.449,-0.06 -0.206,-0.072 -0.465,-0.241 -0.673,-0.346 -0.304,-0.152 -0.612,-0.333 -0.899,-0.52 -0.481,-0.314 -0.9939996,-0.514 -1.4609996,-0.788 -0.124,-0.072 -0.332,-0.101 -0.439,-0.194 -0.062,-0.054 -0.083,-0.147 -0.145,-0.202 -0.089,-0.078 -0.319,-0.159 -0.433,-0.197 -0.082,0.009 -0.16,-0.005 -0.234,-0.042 -0.069,-0.074 -0.138,-0.147 -0.209,-0.219 -0.145,-0.086 -0.34,-0.111 -0.495,-0.194 -0.183,-0.097 -0.38,-0.218 -0.556,-0.329 -0.228,-0.145 -0.396,-0.2 -0.632,-0.309 -0.147,-0.067 -0.16,-0.154 -0.262,-0.244 -0.426,-0.377 -0.936,-0.778 -1.412,-1.111 -0.166,-0.117 -0.351,-0.24 -0.404,-0.429 -0.017,-0.063 -0.02,-0.133 -0.002,-0.213 0.028,-0.131 0.039,-0.164 0.067,-0.177 0.029,-0.013 0.074,-0.007 0.173,-0.059 0.143,-0.076 0.227,-0.169 0.563,-0.51 0.082,0.009 0.158,0.016 0.229,0.023 0.142,0.015 0.266,0.035 0.392,0.085 0.064,0.025 0.127,0.058 0.193,0.102 0.205,0.136 0.402,0.282 0.612,0.415 0.166,0.105 0.374,0.168 0.533,0.275 0.223,0.148 0.385,0.292 0.615,0.426 0.446,0.259 0.821,0.581 1.191,0.913 0.371,0.331 0.738,0.67 1.166,0.961 0.087,0.06 0.1669996,0.129 0.2509996,0.193 0.305,0.231 0.594,0.478 0.884,0.742 0.073,0.066 0.143,0.139 0.214,0.215 0.212,0.227 0.428,0.471 0.709,0.573 0.332,0.121 0.667,0.131 0.994,0.06 0.109,-0.024 0.218,-0.056 0.324,-0.097 0.303,-0.114 0.607,-0.175 0.916,-0.226 0.31,-0.051 0.625,-0.091 0.95,-0.164 0.309,0.314 -0.136,0.715 -0.337,0.915 m -9.3729996,-12.617 c 0.206,-0.207 0.356,-0.451 0.547,-0.66 0.183,-0.199 0.422,-0.38 0.609,-0.587 0.076,-0.084 0.126,-0.193 0.206,-0.279 0.099,-0.104 0.241,-0.179 0.334,-0.286 0.092,-0.107 0.129,-0.263 0.217,-0.377 0.092,-0.118 0.233,-0.245 0.341,-0.351 0.172,-0.169 0.316,-0.326 0.471,-0.514 0.176,-0.212 0.428,-0.37 0.602,-0.583 0.152,-0.188 0.452,-0.378 0.479,-0.619 0.257,0.035 0.531,-0.34 0.742,-0.476 0.2629996,-0.17 0.5649996,-0.361 0.8319996,-0.506 0.516,-0.28 1.379,-0.831 1.929,-0.359 0.281,0.242 0.369,0.718 0.483,1.048 0.119,0.346 0.134,0.657 0.215,0.977 0.07,0.276 0.233,0.526 0.43,0.738 0.038,0.04 0.136,0.023 0.173,0.062 0.067,0.07 0.114,0.215 0.172,0.297 0.125,0.18 0.262,0.372 0.503,0.354 -0.817,0.228 -1.469,0.549 -1.964,0.741 -0.158,0.061 -0.342,0.098 -0.528,0.13 -0.186,0.032 -0.374,0.057 -0.542,0.096 -0.347,0.08 -0.696,0.17 -1.044,0.259 -0.343,0.087 -0.6959996,0.133 -1.0279996,0.241 -0.543,0.176 -1.086,0.059 -1.609,0.26 -0.438,0.168 -0.898,0.224 -1.335,0.374 -0.285,0.098 -0.524,0.257 -0.816,0.336 -0.116,0.032 -0.47,0.094 -0.558,-0.027 -0.031,-0.042 -0.044,-0.075 -0.044,-0.103 -10e-4,-0.082 0.11,-0.112 0.183,-0.186 m -2.741,-0.143 c -0.266,0.376 -1.044,0.114 -1.421,0.077 -0.632,-0.061 -0.954,0.286 -1.364,0.693 -0.176,0.174 -0.959,0.741 -0.733,0.989 l -0.249,0.092 c -0.294,-0.096 -0.195,-0.386 -0.171,-0.616 0.03,-0.288 0.144,-0.325 0.274,-0.565 0.244,-0.453 0.422,-0.949 0.744,-1.361 0.594,-0.762 1.65,-1.058 2.496,-0.672 0.152,0.069 0.137,0.034 0.248,0.134 0.099,0.089 0.253,0.326 0.277,0.457 0.027,0.139 -0.013,0.648 -0.101,0.772 m -0.545,2.981 c -0.03,0.275 -0.048,0.555 -0.09,0.828 -0.038,0.247 -0.174,0.326 -0.268,0.528 -0.157,0.337 -0.282,0.626 -0.492,0.943 -0.143,0.216 -0.279,0.383 -0.396,0.615 -0.13,0.256 -0.266,0.479 -0.412,0.727 -0.133,0.225 -0.255,0.367 -0.389,0.59 -0.225,0.372 -0.669,0.68 -1.115,0.621 -0.611,0.057 -0.797,-0.417 -0.829,-0.623 -0.027,-0.171 -0.07,-0.384 -0.003,-0.556 0.053,-0.138 0.127,-0.166 0.164,-0.326 0.068,-0.3 0.067,-0.641 0.101,-0.947 0.036,-0.332 0.095,-0.573 0.204,-0.874 0.105,-0.292 0.231,-0.541 0.371,-0.827 0.134,-0.275 0.263,-0.616 0.484,-0.862 0.205,-0.227 0.323,-0.488 0.526,-0.726 0.138,-0.16 0.273,-0.338 0.385,-0.509 0.148,-0.225 0.172,-0.458 0.467,-0.48 0.233,-0.018 0.639,0.044 0.824,0.163 0.549,0.355 0.53,1.148 0.468,1.715 m -4.624,0.532 c -0.024,0.248 0.013,0.578 -0.181,0.73 -0.109,0.086 -0.352,0.06 -0.487,0.108 -0.099,0.035 -0.188,0.092 -0.277,0.137 -0.246,0.125 -0.483,0.103 -0.744,0.181 -0.207,0.062 -0.36,0.179 -0.576,0.236 -0.412,0.109 -0.824,0.227 -1.235,0.34 -0.536,0.147 -1.018,0.428 -1.534,0.586 -0.488,0.15 -1.002,0.271 -1.498,0.401 -0.614,0.161 -1.211,0.25 -1.836,0.336 -0.355,0.049 -0.686,0.145 -1.043,0.185 -0.326,0.036 -0.582,0.211 -0.892,0.266 -0.131,0.023 -0.239,-0.037 -0.362,-0.023 -0.148,0.018 -0.194,0.087 -0.36,0.09 -0.115,0.002 -0.241,-0.059 -0.356,-0.048 -0.131,0.013 -0.237,0.083 -0.368,0.091 -0.2,0.013 -0.755,-0.018 -0.925,-0.099 -0.176,-0.084 -0.324,-0.347 -0.475,-0.509 -0.265,-0.282 -0.281,-0.491 -0.231,-0.864 0.04,-0.298 -0.077,-0.454 -0.039,-0.748 0.044,-0.34 -0.05,-0.63 -0.015,-0.965 0.032,-0.297 0.184,-0.508 -0.169,-0.61 0.193,0.088 0.146,-0.036 0.266,-0.084 0.224,-0.089 0.332,-0.182 0.603,-0.214 0.32,-0.039 0.655,-0.097 0.967,-0.098 0.507,-0.001 1.016,-0.136 1.528,-0.071 0.142,0.018 0.286,0.049 0.428,0.037 0.093,-0.008 0.102,-0.083 0.202,-0.093 0.256,-0.028 0.463,0.049 0.724,-0.005 0.246,-0.05 0.452,-0.079 0.699,-0.072 0.311,0.009 0.565,-0.129 0.872,-0.143 0.262,-0.012 0.525,-0.054 0.787,-0.035 0.243,0.018 0.327,-0.022 0.539,-0.062 0.246,-0.047 0.563,-0.098 0.823,-0.118 0.287,-0.023 0.584,0.096 0.864,0.044 0.129,-0.025 0.239,-0.125 0.366,-0.152 0.184,-0.039 0.371,0.028 0.559,0.012 0.09,-0.008 0.177,-0.059 0.283,-0.065 0.104,-0.006 0.239,0.036 0.337,0.042 0.266,0.018 0.476,-0.073 0.748,-0.039 0.236,0.029 0.472,0.052 0.709,0.077 0.241,0.026 0.41,0.041 0.604,0.15 0.208,0.118 0.363,0.301 0.519,0.475 0.195,0.219 0.205,0.299 0.176,0.593 m -1.675,3.01 c -0.205,0.207 -0.355,0.452 -0.546,0.66 -0.183,0.2 -0.422,0.38 -0.609,0.587 -0.076,0.084 -0.126,0.194 -0.207,0.279 -0.099,0.105 -0.241,0.179 -0.333,0.286 -0.092,0.107 -0.129,0.264 -0.218,0.378 -0.091,0.117 -0.232,0.244 -0.34,0.35 -0.172,0.17 -0.316,0.327 -0.472,0.514 -0.175,0.212 -0.427,0.37 -0.601,0.584 -0.152,0.187 -0.452,0.377 -0.48,0.618 -0.256,-0.034 -0.531,0.34 -0.741,0.476 -0.263,0.17 -0.565,0.361 -0.833,0.506 -0.516,0.281 -1.378,0.831 -1.928,0.359 -0.281,-0.241 -0.37,-0.718 -0.483,-1.048 -0.119,-0.345 -0.134,-0.657 -0.215,-0.977 -0.07,-0.275 -0.234,-0.525 -0.431,-0.737 -0.037,-0.041 -0.135,-0.024 -0.173,-0.063 -0.066,-0.07 -0.113,-0.214 -0.171,-0.297 -0.125,-0.18 -0.262,-0.372 -0.504,-0.354 0.818,-0.228 1.47,-0.549 1.965,-0.741 0.317,-0.122 0.734,-0.148 1.07,-0.226 0.347,-0.08 0.696,-0.17 1.044,-0.259 0.343,-0.087 0.696,-0.133 1.028,-0.24 0.543,-0.177 1.086,-0.06 1.609,-0.26 0.438,-0.168 0.898,-0.225 1.335,-0.375 0.285,-0.097 0.524,-0.257 0.816,-0.336 0.115,-0.031 0.47,-0.094 0.558,0.027 0.123,0.17 -0.042,0.191 -0.14,0.289 m -9.827,-9.557 c 0.245,-0.393 0.561,-0.638 0.962,-0.853 0.37,-0.199 0.581,-0.143 0.994,-0.101 0.407,0.041 0.72,0.191 1.062,0.415 0.221,0.145 0.378,0.177 0.63,0.259 0.224,0.072 0.409,0.211 0.619,0.312 0.325,0.154 0.839,0.4 1.069,0.693 0.271,0.344 0.401,0.769 0.832,0.987 0.154,0.078 0.312,0.081 0.474,0.13 0.204,0.062 0.374,0.175 0.568,0.261 0.315,0.139 0.602,0.306 0.909,0.461 0.199,0.1 0.412,0.153 0.621,0.213 0.272,0.079 0.309,0.216 0.504,0.421 0.164,0.173 0.25,0.189 0.436,0.275 0.142,0.066 0.168,0.038 0.324,0.155 0.126,0.094 0.176,0.27 0.079,0.612 -1.494,-0.164 -2.988,-0.328 -4.483,-0.492 -0.784,-0.086 -1.569,-0.172 -2.353,-0.258 -0.426,-0.047 -0.851,-0.094 -1.277,-0.14 -0.369,-0.041 -1.042,0.017 -1.325,-0.254 -0.261,-0.251 -0.303,-0.793 -0.437,-1.132 -0.164,-0.415 -0.257,-0.816 -0.316,-1.232 -0.038,-0.27 -0.041,-0.495 0.108,-0.732 m 0.455,-3.06 c 0.203,-0.203 0.383,-0.173 0.632,-0.287 0.514,-0.235 1.163,-0.59 1.751,-0.385 0.206,0.072 0.465,0.241 0.673,0.346 0.304,0.153 0.612,0.334 0.898,0.52 0.482,0.314 0.995,0.515 1.462,0.788 0.123,0.072 0.332,0.101 0.439,0.194 0.062,0.055 0.083,0.148 0.145,0.202 0.089,0.078 0.319,0.159 0.432,0.197 0.083,-0.009 0.161,0.005 0.235,0.042 0.068,0.075 0.138,0.148 0.209,0.22 0.145,0.086 0.34,0.111 0.495,0.193 0.183,0.097 0.379,0.218 0.555,0.329 0.229,0.145 0.396,0.201 0.633,0.309 0.147,0.068 0.16,0.154 0.262,0.245 0.426,0.376 0.936,0.777 1.412,1.111 0.221,0.155 0.476,0.323 0.406,0.641 -0.058,0.262 -0.043,0.131 -0.241,0.236 -0.142,0.076 -0.226,0.17 -0.563,0.51 -0.327,-0.035 -0.549,-0.034 -0.813,-0.209 -0.205,-0.137 -0.403,-0.283 -0.612,-0.415 -0.166,-0.106 -0.374,-0.169 -0.534,-0.275 -0.222,-0.149 -0.385,-0.293 -0.615,-0.426 -0.89,-0.518 -1.5,-1.292 -2.356,-1.875 -0.406,-0.277 -0.765,-0.597 -1.136,-0.935 -0.289,-0.263 -0.548,-0.652 -0.922,-0.788 -0.443,-0.161 -0.891,-0.125 -1.319,0.037 -0.605,0.229 -1.215,0.244 -1.865,0.39 -0.309,-0.313 0.135,-0.715 0.337,-0.915 m 31.5019996,5.55 c -0.153,-0.211 -0.28,-0.439 -0.481,-0.623 -0.57,-0.525 -1.288,-0.662 -1.904,-1.103 -0.244,-0.174 -0.427,-0.246 -0.577,-0.509 -0.142,-0.25 -0.156,-0.499 -0.27,-0.753 -0.125,-0.277 -0.23,-0.431 -0.282,-0.747 -0.031,-0.183 -0.075,-0.43 -0.173,-0.587 -0.065,-0.105 -0.157,-0.163 -0.213,-0.286 -0.054,-0.12 -0.07,-0.259 -0.129,-0.376 -0.113,-0.222 -0.293,-0.447 -0.44,-0.646 -0.111,-0.149 -0.333,-0.526 -0.54,-0.552 -0.111,-0.013 -0.202,0.081 -0.309,0.091 -0.104,0.01 -0.195,-0.027 -0.299,-0.026 -0.371,0.002 -0.859,0.175 -1.227,0.316 -0.453,0.175 -0.92,0.257 -1.3669996,0.478 -0.235,0.116 -0.487,0.192 -0.724,0.308 -0.147,0.073 -0.364,0.102 -0.497,0.179 -0.352,0.203 -0.68,0.519 -0.926,0.837 -0.529,0.686 -0.976,1.415 -1.523,2.091 -0.339,0.42 -0.67,0.875 -1.024,1.278 -0.191,0.217 -0.31,0.35 -0.536,0.468 -0.164,0.086 -0.267,0.265 -0.495,0.186 -0.137,-0.102 -0.188,-0.456 -0.376,-0.818 -0.157,-0.303 -0.461,-0.35 -0.774,-0.39 -0.425,-0.054 -0.888,-0.129 -1.316,-0.145 -0.045,-0.002 -0.086,0.002 -0.126,0.005 l 0.016,-0.154 c -0.058,0.056 -0.114,0.114 -0.166,0.175 -0.096,0.021 -0.183,0.052 -0.267,0.091 -0.102,-0.133 -0.331,-0.12 -0.531,-0.14 -0.226,-0.021 -0.597,-0.152 -0.806,-0.065 -0.157,0.066 -0.404,0.282 -0.542,0.392 -0.2,0.16 -0.338,0.346 -0.498,0.537 -0.032,0.039 -0.056,0.08 -0.086,0.119 -0.037,-0.036 -0.076,-0.062 -0.121,-0.086 0.022,-0.091 -0.013,-0.192 -0.034,-0.403 -0.028,-0.288 0.103,-0.523 -0.093,-0.797 -0.175,-0.245 -0.509,-0.383 -0.772,-0.515 -0.296,-0.149 -0.584,-0.093 -0.884,-0.195 -0.315,-0.106 -0.593,-0.318 -0.905,-0.44 -0.188,-0.074 -0.404,-0.085 -0.575,-0.204 -0.047,-0.032 -0.09,-0.112 -0.119,-0.132 -0.282,-0.191 -0.584,-0.34 -0.846,-0.574 -0.162,-0.145 -0.297,-0.322 -0.477,-0.441 -0.479,-0.315 -0.975,-0.601 -1.413,-0.982 -0.331,-0.288 -0.676,-0.553 -0.98,-0.858 -0.227,-0.227 -0.511,-0.472 -0.777,-0.628 -0.285,-0.168 -0.462,-0.46 -0.755,-0.617 -0.258,-0.138 -0.561,-0.125 -0.847,-0.157 -0.98,-0.109 -2.607,-0.563 -3.352,0.224 -0.115,0.121 -0.275,0.196 -0.386,0.322 -0.046,0.052 -0.137,0.303 -0.173,0.366 -0.124,0.213 -0.31,0.421 -0.409,0.646 -0.091,0.207 -0.129,0.484 -0.194,0.701 -0.057,0.192 -0.068,0.381 -0.09,0.582 -0.033,0.293 -0.131,0.631 -0.107,0.92 0.018,0.23 0.069,0.384 0.054,0.622 -0.018,0.286 0.02,0.499 0.128,0.769 0.116,0.291 0.058,0.351 0.07,0.663 0.012,0.317 0.086,0.639 0.114,0.958 0.028,0.324 -0.048,0.67 -0.083,0.993 -0.038,0.347 -0.016,0.863 -0.267,1.132 -0.111,0.12 -0.32,0.26 -0.462,0.365 -0.089,0.066 -0.189,0.095 -0.268,0.177 -0.046,0.048 -0.026,0.16 -0.073,0.211 -0.138,0.15 -0.182,0.166 -0.28,0.348 -0.118,0.22 -0.114,0.412 -0.188,0.646 -0.082,0.262 -0.255,0.539 -0.31,0.835 -0.038,0.206 -0.041,0.426 -0.063,0.635 -0.054,0.484 -0.105,0.969 -0.16,1.452 -0.058,0.511 0.058,0.798 0.424,1.171 0.123,0.125 0.288,0.252 0.406,0.415 0.154,0.211 0.281,0.439 0.481,0.623 0.571,0.524 1.288,0.662 1.905,1.102 0.243,0.175 0.427,0.246 0.577,0.509 0.142,0.25 0.156,0.5 0.27,0.753 0.125,0.278 0.229,0.432 0.282,0.747 0.031,0.184 0.075,0.43 0.172,0.587 0.065,0.105 0.158,0.163 0.214,0.287 0.054,0.119 0.07,0.258 0.129,0.375 0.112,0.222 0.292,0.447 0.44,0.646 0.111,0.15 0.333,0.526 0.54,0.552 0.11,0.014 0.202,-0.08 0.309,-0.09 0.104,-0.01 0.195,0.026 0.298,0.026 0.372,-0.002 0.86,-0.176 1.227,-0.317 0.454,-0.175 0.92,-0.257 1.367,-0.477 0.236,-0.117 0.488,-0.193 0.725,-0.309 0.147,-0.072 0.364,-0.102 0.497,-0.178 0.352,-0.204 0.68,-0.52 0.925,-0.837 0.53,-0.687 0.977,-1.416 1.524,-2.092 0.339,-0.419 0.669,-0.875 1.024,-1.278 0.191,-0.217 0.309,-0.349 0.536,-0.468 0.163,-0.086 0.266,-0.264 0.495,-0.185 0.137,0.101 0.187,0.455 0.376,0.818 0.157,0.302 0.461,0.349 0.774,0.389 0.425,0.054 0.888,0.129 1.316,0.145 0.045,0.002 0.085,-0.002 0.126,-0.005 l -0.017,0.154 c 0.059,-0.056 0.114,-0.114 0.167,-0.175 0.096,-0.021 0.183,-0.052 0.267,-0.091 0.101,0.134 0.33,0.121 0.531,0.14 0.225,0.022 0.596,0.153 0.806,0.065 0.157,-0.066 0.404,-0.281 0.542,-0.391 0.181,-0.146 0.313,-0.313 0.455,-0.486 0.072,0.056 0.159,0.092 0.252,0.107 0.01,0.057 0.022,0.123 0.031,0.211 0.029,0.289 -0.103,0.524 0.094,0.798 0.175,0.245 0.509,0.382 0.772,0.514 0.295,0.15 0.584,0.094 0.883,0.195 0.315,0.106 0.594,0.319 0.905,0.441 0.189,0.074 0.405,0.084 0.576,0.203 0.047,0.033 0.09,0.113 0.119,0.132 0.282,0.191 0.584,0.34 0.845,0.574 0.162,0.145 0.298,0.323 0.478,0.441 0.479,0.315 0.975,0.601 1.413,0.983 0.331,0.287 0.675,0.553 0.98,0.857 0.2269996,0.227 0.5109996,0.473 0.7769996,0.629 0.285,0.167 0.462,0.459 0.755,0.616 0.257,0.138 0.56,0.126 0.847,0.158 0.98,0.108 2.607,0.563 3.351,-0.224 0.115,-0.122 0.276,-0.196 0.387,-0.323 0.046,-0.052 0.137,-0.302 0.173,-0.365 0.123,-0.214 0.31,-0.422 0.409,-0.646 0.091,-0.207 0.129,-0.485 0.193,-0.702 0.058,-0.191 0.069,-0.38 0.091,-0.582 0.032,-0.293 0.13,-0.631 0.107,-0.92 -0.018,-0.23 -0.069,-0.383 -0.054,-0.621 0.018,-0.287 -0.02,-0.5 -0.128,-0.769 -0.116,-0.291 -0.058,-0.352 -0.07,-0.663 -0.012,-0.318 -0.086,-0.64 -0.114,-0.959 -0.028,-0.323 0.047,-0.67 0.083,-0.993 0.038,-0.347 0.016,-0.862 0.267,-1.132 0.111,-0.119 0.319,-0.26 0.462,-0.365 0.089,-0.066 0.189,-0.094 0.267,-0.177 0.047,-0.048 0.027,-0.16 0.073,-0.21 0.138,-0.15 0.183,-0.166 0.281,-0.349 0.118,-0.219 0.114,-0.412 0.187,-0.646 0.083,-0.262 0.256,-0.538 0.311,-0.835 0.038,-0.205 0.04,-0.426 0.063,-0.635 0.053,-0.484 0.104,-0.968 0.16,-1.452 0.058,-0.51 -0.058,-0.798 -0.424,-1.17 -0.123,-0.125 -0.289,-0.253 -0.407,-0.415" /></g><text
       xml:space="preserve"
       style="font-size:4.23333px;font-family:sans-serif;-inkscape-font-specification:'sans-serif, Normal';display:inline;fill:#000000;stroke-width:0.264583"
       x="178.84595"
       y="63.731514"
       id="text2-6"><tspan
         id="tspan2-9"
         style="stroke-width:0.264583"
         x="178.84595"
         y="63.731514">Scenario Name &amp; Encounter Set Icons</tspan></text><text
       xml:space="preserve"
       style="font-size:4.23333px;font-family:sans-serif;-inkscape-font-specification:'sans-serif, Normal';display:inline;fill:#000000;stroke-width:0.264583"
       x="128.43872"
       y="63.723248"
       id="text1-0"><tspan
         id="tspan1-8"
         style="font-size:4.23333px;stroke-width:0.264583"
         x="128.43872"
         y="63.723248">Main Scenario Icon</tspan></text><text
       xml:space="preserve"
       style="font-size:7.76111px;display:inline;fill:#000000;fill-rule:nonzero;stroke-width:5.29167"
       x="161.8064"
       y="50.611206"
       id="text942-5"><tspan
         id="tspan942-2"
         style="font-weight:bold;font-size:7.76111px;fill:#000000;stroke-width:5.29167"
         x="161.8064"
         y="50.611206">Standalone Encounter Sets</tspan></text><rect
       style="display:inline;fill:#000000;stroke-width:0.961212"
       id="rect2-6"
       width="0.6513797"
       height="261.25574"
       x="173.8313"
       y="55.165802" /><rect
       style="display:inline;fill:#000000;stroke-width:0.260105"
       id="rect3-1"
       width="185.20833"
       height="0.25484067"
       x="126.20629"
       y="65.881256" /><rect
       style="display:none;fill:#000000;stroke-width:0.14495"
       id="rect4-6"
       width="0.26458332"
       height="263.12088"
       x="148.79395"
       y="51.206085" /></g></svg>
